<?xml version="1.0" encoding="utf-8"?>
<!-- Generator: Adobe Illustrator 17.0.0, SVG Export Plug-In . SVG Version: 6.00 Build 0)  -->
<!DOCTYPE svg PUBLIC "-//W3C//DTD SVG 1.1//EN" "http://www.w3.org/Graphics/SVG/1.1/DTD/svg11.dtd">
<svg version="1.1" xmlns="http://www.w3.org/2000/svg" xmlns:xlink="http://www.w3.org/1999/xlink" x="0px" y="0px"
	 width="320.677px" height="320.674px" viewBox="0 0 320.677 320.674" enable-background="new 0 0 320.677 320.674"
	 xml:space="preserve">
<g id="behance" display="none">
	<g display="inline">
		<linearGradient id="SVGID_1_" gradientUnits="userSpaceOnUse" x1="160.3386" y1="-5.499714e-09" x2="160.3386" y2="320.6739">
			<stop  offset="0" style="stop-color:#005CFF"/>
			<stop  offset="1" style="stop-color:#0047AD"/>
		</linearGradient>
		<path fill="url(#SVGID_1_)" d="M320.677,282.843c0,20.896-16.938,37.831-37.833,37.831H37.833C16.936,320.674,0,303.739,0,282.843
			V37.833C0,16.938,16.936,0,37.833,0h245.011c20.895,0,37.833,16.938,37.833,37.833V282.843z"/>
	</g>
	<g display="inline" opacity="0.6">
		<linearGradient id="SVGID_2_" gradientUnits="userSpaceOnUse" x1="57.7459" y1="-17.3575" x2="262.9304" y2="338.0324">
			<stop  offset="0.2247" style="stop-color:#FFFFFF;stop-opacity:0.3"/>
			<stop  offset="0.4011" style="stop-color:#FFFFFF;stop-opacity:0"/>
		</linearGradient>
		<path fill="url(#SVGID_2_)" d="M320.677,282.843c0,20.896-16.938,37.831-37.833,37.831H37.833C16.936,320.674,0,303.739,0,282.843
			V37.833C0,16.938,16.936,0,37.833,0h245.011c20.895,0,37.833,16.938,37.833,37.833V282.843z"/>
		<g>
			<linearGradient id="SVGID_3_" gradientUnits="userSpaceOnUse" x1="22.802" y1="64.6249" x2="127.9166" y2="246.6887">
				<stop  offset="0.2247" style="stop-color:#FFFFFF;stop-opacity:0.3"/>
				<stop  offset="0.4011" style="stop-color:#FFFFFF;stop-opacity:0"/>
			</linearGradient>
			<path fill="url(#SVGID_3_)" d="M130.861,150.694c0,0,27.218-2.022,27.218-33.941c0-31.92-22.27-47.497-50.478-47.497H55.68
				h-1.525H14.781v178.381h39.373h1.525h51.922c0,0,56.664,1.786,56.664-52.65C164.265,194.986,166.739,150.694,130.861,150.694z
				 M55.68,100.959h45.241h6.681c0,0,12.619,0,12.619,18.558s-7.423,21.249-15.836,21.249H55.68V100.959z M105.208,215.934H55.68
				v-47.671h51.922c0,0,18.805-0.247,18.805,24.496C126.407,213.39,112.652,215.727,105.208,215.934z"/>
			<g>
				<linearGradient id="SVGID_4_" gradientUnits="userSpaceOnUse" x1="203.0261" y1="123.576" x2="273.6678" y2="245.931">
					<stop  offset="0.2247" style="stop-color:#FFFFFF;stop-opacity:0.3"/>
					<stop  offset="0.4011" style="stop-color:#FFFFFF;stop-opacity:0"/>
				</linearGradient>
				<path fill="url(#SVGID_4_)" d="M239.838,114.64c-68.597,0-68.535,68.535-68.535,68.535s-4.708,68.189,68.537,68.189
					c0,0,61.038,3.486,61.038-47.436h-31.392c0,0,1.046,19.181-28.601,19.181c0,0-31.392,2.1-31.392-31.038h92.43
					C301.924,192.071,312.037,114.64,239.838,114.64z M267.741,168.263h-58.596c0,0,3.837-27.497,31.392-27.497
					C268.091,140.766,267.741,168.263,267.741,168.263z"/>
				<linearGradient id="SVGID_5_" gradientUnits="userSpaceOnUse" x1="224.305" y1="66.5757" x2="252.2175" y2="114.9214">
					<stop  offset="0.2247" style="stop-color:#FFFFFF;stop-opacity:0.3"/>
					<stop  offset="0.4011" style="stop-color:#FFFFFF;stop-opacity:0"/>
				</linearGradient>
				<rect x="201.464" y="79.763" fill="url(#SVGID_5_)" width="73.594" height="21.972"/>
			</g>
		</g>
	</g>
</g>
<g id="Layer_2">
</g>
<g id="Layer_4">
	<circle cx="159.065" cy="156.157" r="155.357"/>
	<g id="Layer_3">
		<g>
			<path fill="#8E7532" d="M136.259,146.149c0,0,23.632-1.756,23.632-29.47c0-27.714-19.335-41.239-43.827-41.239H70.983h-1.324
				H35.473v154.879h34.186h1.324h45.081c0,0,49.198,1.551,49.198-45.714C165.262,184.606,167.41,146.149,136.259,146.149z
				 M70.983,102.967h39.28h5.801c0,0,10.956,0,10.956,16.113s-6.445,18.449-13.749,18.449H70.983V102.967z M113.986,202.793H70.983
				v-41.39h45.081c0,0,16.328-0.214,16.328,21.269C132.392,200.584,120.449,202.613,113.986,202.793z"/>
			<g>
				<path fill="#8E7532" d="M230.878,114.845c-59.559,0-59.505,59.505-59.505,59.505s-4.087,59.205,59.507,59.205
					c0,0,52.996,3.027,52.996-41.186H256.62c0,0,0.908,16.654-24.832,16.654c0,0-27.256,1.823-27.256-26.949h80.252
					C284.784,182.075,293.564,114.845,230.878,114.845z M255.104,161.403h-50.876c0,0,3.331-23.874,27.256-23.874
					C255.409,137.529,255.104,161.403,255.104,161.403z"/>
				<rect x="197.56" y="84.563" fill="#8E7532" width="63.898" height="19.077"/>
			</g>
		</g>
	</g>
	<linearGradient id="SVGID_6_" gradientUnits="userSpaceOnUse" x1="171.2001" y1="194.1499" x2="258.3214" y2="399.9525">
		<stop  offset="0" style="stop-color:#FFFFFF;stop-opacity:0.4"/>
		<stop  offset="1" style="stop-color:#FFFFFF"/>
	</linearGradient>
	<path opacity="0.2" fill="url(#SVGID_6_)" d="M215.703,156.475c-74.716,14.443-140.225,43.782-189.001,81.046
		c27.347,44.394,76.396,73.994,132.363,73.994c85.802,0,155.357-69.556,155.357-155.357c0-3.03-0.096-6.036-0.267-9.023
		C282.531,146.964,249.424,149.956,215.703,156.475z"/>
</g>
</svg>
