<?xml version="1.0" encoding="utf-8"?>
<!-- Generator: Adobe Illustrator 17.0.0, SVG Export Plug-In . SVG Version: 6.00 Build 0)  -->
<!DOCTYPE svg PUBLIC "-//W3C//DTD SVG 1.1//EN" "http://www.w3.org/Graphics/SVG/1.1/DTD/svg11.dtd">
<svg version="1.1" id="Layer_1" xmlns="http://www.w3.org/2000/svg" xmlns:xlink="http://www.w3.org/1999/xlink" x="0px" y="0px"
	 width="320.677px" height="320.674px" viewBox="0 0 320.677 320.674" enable-background="new 0 0 320.677 320.674"
	 xml:space="preserve">
<g id="Layer_4">
	<g id="Layer_3" display="none">
		<g display="inline">
			<path fill="#8E7532" d="M136.259,146.149c0,0,23.632-1.756,23.632-29.47S140.556,75.44,116.064,75.44H70.983h-1.324H35.473
				v154.879h34.186h1.324h45.081c0,0,49.198,1.551,49.198-45.714C165.262,184.606,167.41,146.149,136.259,146.149z M70.983,102.967
				h39.28h5.801c0,0,10.956,0,10.956,16.113s-6.445,18.449-13.749,18.449H70.983V102.967z M113.986,202.793H70.983v-41.39h45.081
				c0,0,16.328-0.214,16.328,21.269C132.392,200.584,120.449,202.613,113.986,202.793z"/>
			<g>
				<path fill="#8E7532" d="M230.878,114.845c-59.559,0-59.505,59.505-59.505,59.505s-4.087,59.205,59.507,59.205
					c0,0,52.996,3.027,52.996-41.186H256.62c0,0,0.908,16.654-24.832,16.654c0,0-27.256,1.823-27.256-26.949h80.252
					C284.784,182.075,293.564,114.845,230.878,114.845z M255.104,161.403h-50.876c0,0,3.331-23.874,27.256-23.874
					C255.409,137.529,255.104,161.403,255.104,161.403z"/>
				<rect x="197.56" y="84.563" fill="#8E7532" width="63.898" height="19.077"/>
			</g>
		</g>
	</g>
	<g id="Layer_6">
		<circle cx="159.065" cy="156.157" r="155.357"/>
	</g>
	<g id="Layer_5">
		<path fill="#8E7532" d="M158.683,105.722c0-12.732,1.214-19.558,19.507-19.558h24.44V37.329h-39.118
			C116.538,37.329,100,61.02,100,100.852v29.309H70.702v48.834H100V299.88c18.077,7.437,37.862,11.568,58.608,11.628V178.996h39.118
			l5.186-48.834h-44.304L158.683,105.722z"/>
	</g>
	<g display="none">
		<path display="inline" fill="#FFFFFF" d="M-123.656,315.894c0,7.237-5.867,13.104-13.104,13.104h-261
			c-7.235,0-13.102-5.867-13.102-13.104V59.449c0-7.235,5.867-13.102,13.102-13.102h261c7.237,0,13.104,5.867,13.104,13.102
			C-123.656,59.449-123.656,315.894-123.656,315.894z"/>
		<g display="inline">
			
				<linearGradient id="SVGID_1_" gradientUnits="userSpaceOnUse" x1="-267.2585" y1="273.8787" x2="-267.2585" y2="-8.7713" gradientTransform="matrix(1 0 0 -1 0 321.674)">
				<stop  offset="0" style="stop-color:#4D69A1"/>
				<stop  offset="1" style="stop-color:#3C5A98"/>
			</linearGradient>
			<path fill="url(#SVGID_1_)" d="M-123.656,315.894V59.449c0-7.235-5.867-13.102-13.104-13.102h-23.369h-214.253h-23.377
				c-7.217,0-13.064,5.833-13.095,13.039v233.137l-0.007,23.397c0.011,7.22,5.874,13.077,13.102,13.077h144.945V215.521h-37.413
				v-39.097h37.413v-42.46c0-25.444,23.073-42.539,41.686-42.539h41.882v35.57h-19.32c-9.521,0-22.213,7.73-22.213,17.235v32.193
				h37.735v39.097h-37.735v113.477h50.651h23.369C-129.523,328.998-123.656,323.131-123.656,315.894z"/>
		</g>
	</g>
</g>
</svg>
