<?xml version="1.0" encoding="utf-8"?>
<!-- Generator: Adobe Illustrator 17.0.0, SVG Export Plug-In . SVG Version: 6.00 Build 0)  -->
<!DOCTYPE svg PUBLIC "-//W3C//DTD SVG 1.1//EN" "http://www.w3.org/Graphics/SVG/1.1/DTD/svg11.dtd">
<svg version="1.1" id="Layer_1" xmlns="http://www.w3.org/2000/svg" xmlns:xlink="http://www.w3.org/1999/xlink" x="0px" y="0px"
	 width="320.677px" height="320.674px" viewBox="0 0 320.677 320.674" enable-background="new 0 0 320.677 320.674"
	 xml:space="preserve">
<g id="Layer_4">
	<circle cx="159.065" cy="156.157" r="155.357"/>
	<g id="Layer_3">
		<g>
			<path fill="#8E7532" d="M136.259,146.149c0,0,23.632-1.756,23.632-29.47S140.556,75.44,116.064,75.44H70.983h-1.324H35.473
				v154.879h34.186h1.324h45.081c0,0,49.198,1.551,49.198-45.714C165.262,184.606,167.41,146.149,136.259,146.149z M70.983,102.967
				h39.28h5.801c0,0,10.956,0,10.956,16.113s-6.445,18.449-13.749,18.449H70.983V102.967z M113.986,202.793H70.983v-41.39h45.081
				c0,0,16.328-0.214,16.328,21.269C132.392,200.584,120.449,202.613,113.986,202.793z"/>
			<g>
				<path fill="#8E7532" d="M230.878,114.845c-59.559,0-59.505,59.505-59.505,59.505s-4.087,59.205,59.507,59.205
					c0,0,52.996,3.027,52.996-41.186H256.62c0,0,0.908,16.654-24.832,16.654c0,0-27.256,1.823-27.256-26.949h80.252
					C284.784,182.075,293.564,114.845,230.878,114.845z M255.104,161.403h-50.876c0,0,3.331-23.874,27.256-23.874
					C255.409,137.529,255.104,161.403,255.104,161.403z"/>
				<rect x="197.56" y="84.563" fill="#8E7532" width="63.898" height="19.077"/>
			</g>
		</g>
	</g>
</g>
</svg>
