<?xml version="1.0" encoding="utf-8"?>
<!-- Generator: Adobe Illustrator 17.1.0, SVG Export Plug-In . SVG Version: 6.00 Build 0)  -->
<!DOCTYPE svg PUBLIC "-//W3C//DTD SVG 1.1//EN" "http://www.w3.org/Graphics/SVG/1.1/DTD/svg11.dtd">
<svg version="1.1" id="Layer_1" xmlns="http://www.w3.org/2000/svg" xmlns:xlink="http://www.w3.org/1999/xlink" x="0px" y="0px"
	 viewBox="131 459 91 86" enable-background="new 131 459 91 86" xml:space="preserve">
<g id="Layer_6" display="none">
	<rect x="-1635.9" y="-334.4" display="inline" stroke="#FFFFFF" stroke-miterlimit="10" width="3193.7" height="1656.1"/>
</g>
<g id="Layer_2">
	<circle fill="#111820" cx="167" cy="501.7" r="27"/>
</g>
<g id="Layer_1_1_">
	<g>
		<path fill="#FFFFFF" d="M166.9,471.4l23.5,51.8h-7.1l-5.8-12.8h-21.2l-5.7,12.8h-7.1L166.9,471.4z M166.9,487l-8,17.8h16
			L166.9,487z"/>
	</g>
	<g>
		<path fill="#8C762F" d="M162.5,507.3c0-6.4,2.4-12,7.3-16.5c4.9-4.6,10.7-6.9,17.5-6.9c6.7,0,12.4,2.3,17.2,6.9
			c4.8,4.6,7.2,10.1,7.2,16.5c0,6.7-2.4,12.4-7.1,17.1c-4.7,4.7-10.6,7-17.5,7c-6.8,0-12.6-2.3-17.4-7
			C164.9,519.6,162.5,513.9,162.5,507.3z M205.2,507.5c0-4.9-1.8-9.1-5.3-12.4s-7.9-5.1-13.1-5.1c-4.9,0-9.1,1.7-12.7,5.1
			c-3.5,3.4-5.3,7.5-5.3,12.3c0,4.9,1.8,9,5.4,12.4c3.6,3.4,8,5.1,13.2,5.1c4.8,0,9-1.7,12.4-5.2
			C203.4,516.4,205.2,512.3,205.2,507.5z"/>
	</g>
</g>
<g id="Layer_3">
	<polygon fill="#FFFFFF" points="160.1,504.7 174,504.7 177.4,510.4 158.8,510.4 	"/>
</g>
<g id="Layer_4">
</g>
<g id="Layer_5">
</g>
</svg>
